<?xml version="1.0" standalone="no"?>
<!DOCTYPE svg PUBLIC "-//W3C//DTD SVG 20010904//EN"
 "http://www.w3.org/TR/2001/REC-SVG-20010904/DTD/svg10.dtd">
<svg version="1.0" xmlns="http://www.w3.org/2000/svg"
 width="260.000000pt" height="260.000000pt" viewBox="0 0 260.000000 260.000000"
 preserveAspectRatio="xMidYMid meet">
<metadata>
Created by potrace 1.11, written by Peter Selinger 2001-2013
</metadata>
<g transform="translate(0.000000,260.000000) scale(0.100000,-0.100000)"
fill="#000000" stroke="none">
<path d="M1329 2388 l-31 -62 -29 57 c-31 60 -37 64 -71 46 -15 -8 -22 -8 -28
1 -5 9 -19 6 -50 -10 -39 -20 -44 -20 -52 -6 -8 15 -11 15 -25 1 -9 -9 -22
-14 -30 -10 -11 4 -13 1 -8 -12 4 -10 9 -27 12 -38 4 -20 4 -20 -11 -1 -9 11
-16 26 -16 33 0 21 -19 16 -155 -47 -117 -53 -130 -62 -127 -83 2 -19 -6 -27
-38 -42 -42 -19 -50 -32 -26 -41 19 -7 56 13 56 31 0 20 26 19 34 -1 4 -11 -8
-21 -47 -39 -142 -62 -250 -116 -245 -121 4 -3 24 4 47 15 22 12 44 21 49 21
5 0 14 -18 20 -39 11 -43 -5 -81 -34 -81 -8 0 -41 -13 -74 -30 -33 -16 -61
-30 -64 -30 -2 0 -7 12 -11 28 -4 15 -9 22 -12 15 -2 -6 3 -25 12 -42 21 -42
36 -81 29 -81 -2 0 -16 27 -31 60 -14 33 -28 59 -30 56 -2 -2 7 -30 21 -62 13
-33 21 -62 18 -66 -4 -3 -36 -18 -72 -33 -36 -15 -68 -30 -73 -34 -4 -4 -1
-24 8 -44 l15 -37 36 15 c20 8 38 15 40 15 2 0 12 -20 23 -45 11 -25 26 -45
34 -45 14 0 50 -66 43 -79 -7 -10 -155 -75 -160 -70 -2 2 -18 35 -35 73 -17
38 -33 67 -36 64 -3 -3 9 -38 27 -78 18 -41 28 -75 23 -77 -6 -2 -31 -13 -57
-26 -34 -16 -45 -26 -40 -35 7 -10 52 7 191 69 100 45 183 80 185 78 9 -11 86
-206 86 -217 0 -11 -73 -191 -86 -214 -2 -3 -71 24 -152 61 -202 93 -211 96
-224 83 -8 -8 5 -18 46 -36 31 -14 56 -28 56 -31 0 -3 -13 -37 -30 -76 -16
-38 -26 -69 -22 -69 4 0 21 30 36 68 16 37 30 68 32 70 1 2 39 -13 83 -34 64
-29 80 -41 75 -53 -3 -9 -10 -28 -16 -43 -6 -17 -15 -25 -24 -21 -9 3 -20 -10
-34 -42 -21 -50 -18 -49 -83 -28 -13 4 -21 -4 -33 -32 -8 -20 -14 -38 -12 -40
2 -1 37 -17 78 -34 41 -18 76 -33 77 -35 2 -2 -8 -28 -22 -60 -34 -78 -31 -95
5 -21 33 69 40 69 10 -1 -11 -26 -19 -49 -16 -51 2 -3 7 5 11 17 8 24 9 24
105 -15 82 -34 91 -45 78 -93 -15 -54 -15 -54 -69 -27 -27 14 -49 21 -49 17 0
-5 64 -38 142 -74 89 -40 144 -71 146 -82 2 -9 -3 -16 -12 -16 -9 0 -16 7 -16
15 0 17 -43 30 -67 20 -14 -6 -8 -12 32 -31 28 -13 49 -27 48 -32 -1 -4 -4
-14 -8 -24 -5 -11 0 -18 17 -24 13 -4 76 -31 140 -60 65 -30 119 -54 121 -54
3 0 7 14 11 30 3 17 11 30 17 30 6 0 8 -7 5 -15 -3 -8 -9 -22 -12 -30 -4 -11
-2 -13 9 -10 8 4 22 -1 31 -10 14 -15 17 -15 22 -1 5 13 12 12 51 -7 34 -16
47 -19 50 -10 4 10 12 9 35 -3 16 -8 31 -14 33 -12 1 2 16 30 33 63 l30 59 31
-62 c17 -34 35 -62 39 -62 5 0 17 6 28 14 12 10 23 11 31 5 8 -7 25 -3 52 10
49 26 47 26 56 -2 6 -19 8 -19 12 -4 4 17 15 21 41 18 10 -2 10 5 -2 28 -9 16
-12 32 -7 35 5 3 14 -9 22 -27 7 -17 13 -33 14 -35 1 -1 35 13 76 32 41 19
105 48 142 65 62 28 67 32 57 51 -10 18 -6 22 35 40 52 22 59 40 15 40 -20 0
-33 -6 -37 -18 -12 -32 -42 -33 -43 -1 0 4 68 37 150 75 82 38 150 72 150 76
0 4 -21 -2 -46 -12 -25 -11 -50 -20 -54 -20 -14 0 -30 71 -21 88 4 8 44 31 89
52 l80 38 13 -29 c6 -16 14 -28 16 -25 2 2 -8 32 -22 66 -14 34 -25 64 -23 66
2 2 17 -26 32 -62 16 -36 30 -63 33 -61 2 3 -8 31 -22 63 -25 56 -27 84 -5 84
6 0 40 13 75 29 l65 30 -17 36 c-14 28 -22 35 -38 31 -11 -3 -29 -8 -40 -11
-16 -5 -23 3 -39 40 -12 31 -23 44 -32 41 -9 -3 -19 7 -29 31 -8 19 -15 39
-15 43 0 6 144 80 156 80 2 0 18 -31 35 -70 18 -38 36 -70 40 -70 8 0 -1 22
-43 110 l-17 35 54 25 c51 23 73 50 41 50 -7 0 -91 -36 -187 -79 -96 -44 -175
-78 -175 -78 -1 1 -22 51 -47 111 l-46 109 45 106 c25 58 47 107 49 109 2 2
55 -19 118 -48 l115 -52 -11 -29 c-13 -34 -12 -34 -70 -9 -34 15 -56 18 -92
13 -36 -4 -43 -8 -31 -15 9 -5 31 -6 47 -3 26 6 86 -10 117 -31 2 -1 -1 -12
-8 -23 -7 -14 -8 -27 -1 -40 9 -16 4 -21 -39 -40 -37 -16 -55 -19 -68 -12 -21
11 -62 4 -62 -10 0 -5 11 -7 24 -3 14 3 32 1 42 -4 12 -7 32 -3 71 14 l53 24
12 -25 c6 -14 15 -25 20 -25 5 0 -1 19 -13 41 -16 33 -18 43 -8 50 10 6 10 11
1 22 -10 11 -9 21 3 43 8 16 15 35 15 42 0 17 10 15 73 -12 51 -23 67 -24 67
-5 0 4 -25 19 -55 33 l-54 25 34 75 c19 42 31 76 26 76 -4 0 -20 -29 -36 -65
-15 -36 -31 -68 -37 -71 -5 -3 -44 11 -88 32 l-79 37 20 38 c11 22 26 39 34
39 8 0 23 20 34 45 l20 46 37 -16 c20 -8 38 -14 39 -13 2 2 10 20 19 41 15 37
15 38 -7 46 -12 5 -48 20 -80 35 -65 28 -65 30 -25 109 11 22 17 41 14 44 -3
3 -17 -22 -32 -56 -15 -34 -29 -60 -31 -58 -2 2 8 30 22 62 14 31 24 60 21 63
-3 2 -10 -7 -15 -22 l-10 -26 -58 26 c-32 15 -68 29 -81 31 -34 8 -45 36 -32
84 12 44 19 45 83 12 16 -8 31 -12 34 -9 3 3 -23 19 -58 35 -219 99 -239 110
-233 125 8 22 15 20 39 -10 16 -20 26 -25 43 -20 33 11 27 23 -23 42 -50 18
-49 18 -35 43 8 17 -6 26 -125 80 -74 33 -138 61 -143 61 -5 0 -15 -14 -22
-30 -16 -39 -26 -31 -12 9 9 26 8 29 -5 24 -9 -4 -21 1 -28 11 -9 12 -15 14
-20 5 -7 -10 5 -23 29 -32 5 -2 5 -10 0 -20 -9 -16 -12 -16 -29 -2 -19 15 -19
16 5 9 14 -3 23 -4 20 -1 -11 12 -124 66 -129 62 -5 -6 -5 -7 43 -28 21 -10
36 -20 33 -23 -3 -3 -37 11 -76 30 l-71 36 -31 -62z m-69 -18 c17 -33 34 -60
38 -60 5 0 21 27 37 60 16 33 31 60 35 60 3 0 14 -6 23 -13 16 -11 16 -16 -10
-75 -21 -49 -30 -61 -42 -56 -17 8 -52 9 -85 3 -15 -3 -24 8 -43 56 -23 56
-24 60 -7 72 10 7 19 13 21 13 1 0 16 -27 33 -60z m-100 44 c0 -6 -65 -34 -77
-34 -9 1 58 39 70 40 4 0 7 -2 7 -6z m-114 -29 c-11 -8 -22 -12 -25 -9 -6 6
19 24 34 24 6 -1 1 -7 -9 -15z m134 3 c0 -7 18 -47 38 -89 l38 -76 -25 -24
c-63 -58 -65 -59 -105 -47 -33 10 -41 20 -72 86 -18 41 -34 79 -34 84 0 8 134
77 153 78 4 0 7 -6 7 -12z m322 -23 c40 -19 73 -39 73 -43 0 -4 -15 -41 -33
-83 -31 -71 -36 -77 -74 -88 l-41 -13 -43 45 -42 44 41 87 c23 47 43 86 44 86
1 0 34 -16 75 -35z m-432 -213 c0 -9 -5 -24 -10 -32 -8 -11 -9 -8 -4 12 5 21
-6 55 -40 133 -25 58 -46 111 -46 118 0 6 23 -39 50 -101 28 -62 50 -121 50
-130z m512 117 c-48 -108 -50 -115 -37 -146 17 -41 11 -43 -10 -3 -17 33 -23
14 67 223 12 26 23 45 25 43 3 -2 -18 -55 -45 -117z m-627 101 c3 -5 -12 -18
-35 -30 -48 -24 -54 -8 -7 20 38 23 34 23 42 10z m115 5 c0 -2 -10 -9 -22 -15
-22 -11 -22 -10 -4 4 21 17 26 19 26 11z m636 -27 c3 -5 4 -12 1 -14 -7 -8
-67 25 -67 36 0 11 57 -8 66 -22z m-841 -18 c-3 -5 -14 -10 -23 -10 -15 0 -15
2 -2 10 20 13 33 13 25 0z m101 2 c5 -4 27 -46 47 -95 28 -64 35 -92 28 -105
-5 -9 -41 -32 -79 -51 -100 -48 -110 -44 -162 75 -23 52 -40 97 -38 98 3 3
119 57 158 74 31 13 33 13 46 4z m721 -9 c109 -48 143 -66 143 -78 0 -17 -63
-159 -79 -179 -19 -23 -40 -20 -117 16 -79 36 -86 44 -80 78 7 39 74 180 85
180 6 0 27 -8 48 -17z m74 -1 c-7 -2 -18 1 -23 6 -8 8 -4 9 13 5 13 -4 18 -8
10 -11z m-941 -21 c0 -5 -10 -11 -22 -14 -13 -2 -31 -8 -40 -12 -10 -4 -18 -3
-18 2 0 9 44 30 68 32 6 1 12 -3 12 -8z m1005 -3 c14 -6 25 -14 25 -18 0 -8
-65 12 -76 23 -12 11 23 8 51 -5z m-493 -44 c-2 -11 -5 -29 -7 -42 -2 -17 4
-26 28 -38 54 -28 60 -35 40 -50 -26 -20 1 -18 60 3 48 17 49 17 63 -2 8 -11
19 -36 25 -56 10 -32 7 -45 -32 -135 -23 -54 -46 -103 -50 -108 -4 -4 -42 8
-84 27 l-77 35 -76 -35 c-41 -18 -79 -30 -83 -26 -15 15 -89 193 -89 214 0 23
37 99 48 99 5 0 30 -7 56 -16 26 -9 50 -14 53 -10 3 3 -2 8 -11 12 -14 5 -11
10 16 30 17 13 38 24 46 24 8 0 12 6 8 15 -3 8 -1 15 5 15 5 0 3 13 -5 29 -14
27 -14 29 7 38 29 14 63 0 59 -23z m-592 0 c0 -8 -4 -12 -10 -9 -5 3 -10 13
-10 21 0 8 5 12 10 9 6 -3 10 -13 10 -21z m1136 10 c-3 -9 -6 -18 -6 -20 0 -3
-4 -3 -10 1 -11 7 -2 35 12 35 6 0 7 -7 4 -16z m-1086 -121 c41 -96 45 -101
84 -112 l31 -9 -31 -1 c-20 -1 -38 7 -51 22 -19 20 -83 160 -83 180 0 22 19
-9 50 -80z m1070 83 c0 -2 -16 -42 -35 -88 -39 -90 -63 -118 -104 -118 -26 1
-26 1 6 15 36 15 49 34 89 128 16 37 32 67 36 67 5 0 8 -2 8 -4z m80 -32 c0
-2 -7 -4 -15 -4 -8 0 -15 4 -15 10 0 5 7 7 15 4 8 -4 15 -8 15 -10z m-1263 0
c-3 -3 -12 -4 -19 -1 -8 3 -5 6 6 6 11 1 17 -2 13 -5z m91 -82 c22 -57 49 -96
73 -104 9 -3 9 -12 -1 -42 -9 -29 -22 -42 -56 -59 -24 -11 -44 -25 -44 -29 0
-12 5 -10 55 14 36 18 48 30 61 65 17 43 40 55 71 35 12 -7 108 -221 102 -225
-2 -2 -61 -28 -132 -59 l-128 -57 -44 95 c-24 52 -49 94 -55 94 -7 0 -5 -11 5
-29 17 -34 8 -45 -29 -35 -18 4 -31 21 -52 69 -14 35 -34 66 -43 68 -9 2 -36
-6 -61 -18 -69 -34 -90 -39 -90 -21 0 27 133 84 155 66 26 -21 114 -32 165
-20 28 7 50 16 50 22 0 5 -9 7 -20 3 -14 -4 -27 2 -45 21 -25 26 -66 36 -104
24 -9 -3 -19 12 -30 47 l-18 52 86 40 c47 22 91 40 96 40 6 1 20 -25 33 -57z
m1187 18 c71 -33 86 -44 80 -58 -15 -37 -23 -72 -17 -72 4 0 0 -4 -7 -9 -9 -6
-22 -6 -34 1 -21 11 -67 3 -67 -12 0 -6 -6 -10 -14 -10 -8 0 -17 -7 -20 -16
-4 -10 -13 -13 -26 -9 -11 3 -20 2 -20 -3 0 -6 22 -15 50 -22 52 -12 139 -1
166 21 10 8 32 2 84 -22 38 -17 70 -36 70 -40 0 -19 -22 -17 -81 10 -38 17
-70 26 -78 21 -7 -4 -24 -32 -36 -61 -15 -36 -32 -59 -50 -68 -34 -17 -52 -3
-35 29 6 12 8 25 4 28 -4 4 -8 3 -11 -3 -2 -5 -22 -49 -46 -97 l-42 -86 -127
56 c-71 31 -128 61 -128 66 0 19 84 202 98 214 32 25 56 14 78 -36 17 -39 28
-51 62 -64 24 -9 42 -12 42 -6 0 5 -18 17 -40 25 -33 13 -42 23 -52 54 -10 36
-9 40 14 59 14 11 38 49 53 85 16 36 31 65 35 65 4 0 47 -18 95 -40z m-839
-312 c4 -12 0 -18 -11 -18 -11 0 -15 6 -11 18 4 11 -12 58 -38 114 -25 53 -42
99 -39 102 5 5 82 -164 99 -216z m429 125 c-21 -49 -43 -92 -48 -98 -12 -13
-10 -7 37 103 22 50 42 89 45 87 2 -3 -13 -44 -34 -92z m-559 1 c14 -31 23
-58 21 -60 -2 -2 -15 23 -30 56 -14 33 -23 60 -21 60 3 0 16 -25 30 -56z m635
-1 c-15 -32 -33 -73 -41 -91 -7 -18 -14 -31 -16 -29 -6 6 68 177 77 177 4 0
-5 -26 -20 -57z m-958 30 c-7 -2 -21 -2 -30 0 -10 3 -4 5 12 5 17 0 24 -2 18
-5z m1310 0 c-7 -2 -21 -2 -30 0 -10 3 -4 5 12 5 17 0 24 -2 18 -5z m-1270
-22 c4 -1 7 -6 7 -12 0 -14 -128 -5 -143 10 -8 8 79 9 136 2z m1327 -1 c0 -10
-128 -25 -138 -16 -3 4 -1 10 5 14 17 10 133 12 133 2z m-1460 -90 c24 -47 25
-60 5 -60 -8 0 -15 -4 -15 -10 0 -5 10 -9 22 -7 14 1 23 -4 26 -15 2 -11 -3
-18 -12 -18 -9 0 -16 -4 -16 -10 0 -16 18 -12 40 10 12 12 22 15 26 9 3 -6 17
-8 30 -5 22 6 27 0 49 -50 14 -32 23 -59 20 -62 -14 -15 -200 -91 -206 -85
-10 12 -119 265 -119 278 0 10 102 64 122 65 4 0 17 -18 28 -40z m1548 14 c34
-15 62 -30 62 -34 0 -7 -119 -283 -125 -288 -4 -4 -187 78 -199 88 -5 5 2 33
15 65 21 50 26 56 47 50 13 -3 31 0 40 7 11 9 14 9 9 1 -5 -7 1 -17 14 -23 25
-14 41 -3 17 11 -23 13 -11 42 13 36 11 -3 19 -1 19 4 0 5 -4 9 -10 9 -5 0
-10 7 -10 15 0 17 31 85 39 85 3 0 34 -12 69 -26z m-741 -46 l70 -33 -69 -155
c-38 -85 -73 -158 -77 -162 -5 -6 -95 183 -149 312 -3 7 124 68 144 69 6 1 43
-14 81 -31z m-317 -28 c6 0 10 -4 10 -10 0 -20 -20 -9 -35 20 -19 38 -19 54 1
18 8 -16 19 -28 24 -28z m440 15 c0 -8 -4 -15 -10 -15 -5 0 -10 7 -10 15 0 8
5 15 10 15 6 0 10 -7 10 -15z m54 -20 c-7 -17 -20 -20 -29 -6 -3 5 3 12 12 14
10 3 19 5 20 6 1 0 0 -6 -3 -14z m738 -38 c48 -21 56 -29 51 -46 -3 -12 -9
-23 -13 -26 -5 -3 -39 8 -77 24 -63 28 -68 32 -65 58 l2 28 -15 -25 c-16 -28
-21 -19 -5 10 12 22 30 18 122 -23z m-1881 7 c7 -20 0 -25 -67 -54 -41 -18
-76 -31 -78 -29 -3 2 -7 15 -11 29 -5 23 0 27 57 52 73 31 88 31 99 2z m23 0
c3 -8 2 -12 -4 -9 -6 3 -10 10 -10 16 0 14 7 11 14 -7z m704 -3 c3 -8 -1 -12
-9 -9 -7 2 -15 10 -17 17 -3 8 1 12 9 9 7 -2 15 -10 17 -17z m350 7 c-3 -7
-12 -14 -21 -16 -12 -2 -15 1 -11 12 7 19 38 22 32 4z m38 -35 c-6 -14 -9 -15
-16 -4 -11 19 -1 46 13 32 5 -5 7 -18 3 -28z m-436 13 c0 -24 -17 -28 -23 -6
-3 13 0 20 9 20 8 0 14 -6 14 -14z m-30 -43 c11 -25 17 -49 12 -52 -5 -3 -32
-21 -60 -40 -53 -34 -56 -38 -46 -65 9 -22 24 -20 24 4 0 18 58 64 90 72 8 3
100 -182 100 -202 0 -4 -18 -15 -40 -25 -38 -17 -42 -17 -95 0 -31 9 -65 15
-75 12 -15 -4 -22 1 -26 19 -7 28 -10 29 -58 9 -27 -12 -36 -20 -32 -33 4 -14
-12 -24 -81 -53 -48 -20 -89 -41 -90 -45 -2 -5 37 -26 85 -46 61 -25 87 -41
86 -53 -1 -9 14 -24 37 -36 l39 -20 11 25 c8 17 19 24 38 24 14 0 47 7 73 16
46 16 49 16 88 -4 22 -11 40 -22 40 -25 0 -9 -82 -190 -89 -198 -5 -5 -29 4
-55 20 -33 20 -46 34 -46 50 0 26 -15 31 -24 7 -12 -31 -5 -40 52 -73 31 -19
58 -35 60 -36 1 -1 -7 -24 -18 -50 -12 -29 -25 -45 -33 -42 -31 13 -472 210
-475 212 -1 1 18 51 43 110 25 59 45 113 45 120 0 6 -18 52 -39 102 -22 50
-41 99 -43 108 -2 14 44 39 237 125 132 60 241 108 242 109 1 1 11 -20 23 -46z
m967 -163 c21 -9 21 -10 -27 -124 l-49 -115 49 -111 48 -110 -36 -19 c-46 -23
-448 -201 -455 -201 -6 0 -40 90 -36 93 73 46 119 78 119 83 0 3 -5 14 -11 25
-11 22 -31 17 -23 -6 4 -9 -11 -25 -42 -45 -26 -16 -50 -30 -53 -30 -4 0 -27
47 -52 104 l-46 103 43 21 c41 20 46 20 86 6 24 -9 58 -16 76 -16 18 0 32 -5
32 -12 0 -7 5 -17 11 -23 16 -16 87 20 85 43 -1 11 24 27 81 53 45 20 84 39
88 42 3 4 -35 24 -85 45 -65 28 -90 43 -90 56 0 16 -46 48 -68 48 -5 0 -14
-11 -20 -25 -7 -16 -17 -23 -26 -19 -9 3 -41 -2 -72 -12 -55 -17 -56 -17 -99
4 l-44 21 23 48 c13 26 34 73 46 103 13 30 24 56 26 58 1 2 25 -11 53 -28 41
-25 50 -36 46 -51 -4 -13 -2 -19 9 -19 9 0 16 4 16 9 0 5 3 16 6 24 4 10 -14
26 -55 52 -34 20 -61 41 -61 46 0 5 9 27 20 48 l19 39 223 -100 c123 -55 233
-103 245 -108z m-1568 109 c1 -7 -46 -29 -63 -29 -15 0 -49 79 -35 82 5 0 15
1 22 2 6 1 19 7 27 15 12 12 17 8 31 -25 10 -22 18 -42 18 -45z m1753 59 c26
5 31 -17 13 -58 l-17 -39 -34 17 c-39 18 -39 17 -18 68 13 32 18 36 28 23 6
-8 18 -13 28 -11z m-1046 -36 c-4 -4 -14 2 -22 12 -11 16 -11 21 -1 28 14 9
35 -27 23 -40z m288 15 c-3 -9 -12 -17 -20 -17 -17 0 -17 5 -3 32 13 24 33 10
23 -15z m-334 -7 c6 -11 8 -25 4 -32 -4 -7 -12 -2 -20 13 -11 21 -10 39 1 39
2 0 9 -9 15 -20z m380 8 c0 -19 -18 -43 -25 -36 -9 9 4 48 16 48 5 0 9 -6 9
-12z m-281 -115 c45 -106 45 -103 32 -103 -11 0 -66 113 -77 157 -13 51 14 18
45 -54z m211 70 c0 -22 -75 -173 -86 -173 -8 0 1 31 28 90 36 78 58 109 58 83z
m-931 -97 c-2 -2 -13 -6 -25 -10 -17 -5 -23 0 -37 34 -15 40 -15 41 6 49 19 8
25 3 41 -30 11 -21 18 -40 15 -43z m1671 53 c0 -13 -29 -69 -36 -69 -3 0 -14
5 -25 10 -19 11 -19 11 1 51 18 34 23 38 40 29 11 -6 20 -15 20 -21z m-988
-64 c20 -47 33 -87 29 -89 -4 -3 -24 33 -44 79 -39 89 -41 95 -29 95 4 0 24
-38 44 -85z m285 73 c-14 -35 -71 -164 -74 -167 -2 -2 -6 -1 -9 2 -9 9 66 177
79 177 5 0 7 -6 4 -12z m-540 -204 c5 -14 -11 -33 -28 -34 -14 0 -19 34 -7 42
19 12 28 10 35 -8z m772 7 c14 -9 9 -41 -6 -41 -19 1 -33 18 -27 33 7 19 13
21 33 8z m-379 -21 c-1 -15 -19 -32 -29 -26 -18 12 -12 32 9 32 11 0 20 -3 20
-6z m-71 -39 c-15 -5 -22 6 -14 19 6 9 10 9 16 -1 5 -8 4 -15 -2 -18z m115 14
c3 -9 0 -15 -9 -15 -8 0 -15 7 -15 15 0 8 4 15 9 15 5 0 11 -7 15 -15z m-364
-10 c0 -8 5 -15 10 -15 6 0 10 4 10 9 0 5 12 8 28 6 15 -2 34 -4 43 -4 19 -1
41 -45 33 -66 -13 -33 -87 -48 -112 -23 -9 9 -12 8 -12 -4 0 -27 -16 -29 -66
-8 -42 18 -49 19 -56 6 -7 -13 -17 -12 -71 11 -34 15 -66 29 -70 33 -4 4 24
19 63 35 57 23 73 26 80 15 7 -11 15 -10 46 3 50 20 74 21 74 2z m668 -2 c36
-13 45 -14 52 -3 7 11 22 8 80 -17 l71 -30 -72 -31 c-62 -28 -73 -30 -83 -17
-10 13 -17 12 -56 -6 l-44 -20 -18 23 c-10 13 -18 17 -18 11 0 -21 -67 -16
-90 7 -23 23 -25 40 -7 62 14 19 83 32 92 18 9 -15 25 -12 25 5 0 19 14 19 68
-2z m-238 -17 c0 -3 -4 -8 -10 -11 -5 -3 -10 -1 -10 4 0 6 5 11 10 11 6 0 10
-2 10 -4z m-173 -32 c5 -16 -40 -26 -48 -12 -4 7 -5 16 -2 21 7 11 46 5 50 -9z
m133 2 c0 -21 -11 -25 -38 -15 -28 11 -20 29 14 29 14 0 24 -6 24 -14z m-130
-53 c0 -5 -4 -14 -9 -21 -7 -11 -9 -11 -14 1 -3 8 -3 18 0 21 9 8 23 7 23 -1z
m102 -8 c0 -5 -5 -11 -11 -13 -6 -2 -11 4 -11 13 0 9 5 15 11 13 6 -2 11 -8
11 -13z m-448 -11 c18 -7 21 -30 6 -39 -19 -12 -39 3 -33 24 6 24 5 23 27 15z
m404 -12 c2 -6 -6 -10 -17 -9 -22 1 -26 8 -14 21 9 9 26 3 31 -12z m382 -26
c-29 -13 -47 13 -22 32 14 11 19 10 30 -5 11 -15 10 -19 -8 -27z m-500 -81
c-11 -25 -29 -66 -40 -91 -11 -26 -23 -44 -27 -41 -3 4 5 30 17 59 13 29 29
68 37 86 7 17 18 32 23 32 5 0 0 -20 -10 -45z m233 -41 c21 -48 35 -89 32 -92
-7 -7 -7 -7 -44 78 -45 100 -44 100 -34 100 5 0 25 -39 46 -86z m-173 60 c0
-16 -74 -174 -81 -174 -14 0 -11 13 17 76 14 33 30 69 35 82 7 19 29 32 29 16z
m133 -80 c34 -79 41 -113 18 -88 -20 21 -79 174 -67 174 6 0 28 -39 49 -86z
m-17 -84 l72 -159 -74 -35 -74 -35 -75 34 -75 35 14 32 c71 163 130 288 135
288 3 0 38 -72 77 -160z m-892 97 c17 -12 17 -16 2 -51 -13 -32 -19 -36 -38
-30 -13 3 -24 7 -25 9 -5 3 32 85 38 85 3 0 13 -6 23 -13z m1676 -35 c11 -29
11 -35 -1 -43 -24 -15 -34 -10 -50 30 -16 38 -16 39 5 49 24 11 28 8 46 -36z
m-1437 -54 c15 -5 27 -11 27 -13 0 -2 -12 -31 -26 -64 -24 -55 -28 -59 -46
-50 -16 8 -23 8 -29 -2 -8 -11 -11 -11 -20 4 -5 9 -20 17 -31 17 -20 0 -21 -1
-4 -13 24 -17 12 -46 -17 -40 -20 5 -21 4 -4 -8 16 -13 16 -16 1 -56 -10 -24
-24 -43 -32 -43 -8 0 -40 12 -72 26 l-58 26 55 126 c30 70 59 137 64 149 l8
23 78 -36 c43 -20 90 -40 106 -46z m1396 -64 c34 -78 61 -145 61 -148 0 -8
-108 -56 -126 -56 -7 0 -22 19 -32 43 -15 34 -16 43 -5 50 19 12 16 26 -6 20
-22 -6 -36 23 -15 31 8 3 14 10 14 15 0 7 -9 7 -25 -1 -13 -6 -22 -15 -19 -19
3 -5 1 -9 -5 -9 -5 0 -13 5 -16 10 -4 7 -13 7 -26 0 -18 -10 -22 -5 -44 45
-14 30 -25 59 -25 64 0 7 202 102 206 97 1 0 29 -65 63 -142z m-1689 61 c35
-18 35 -17 14 -58 -21 -41 -19 -40 -41 -28 -10 5 -26 12 -35 15 -16 5 -16 7 0
45 19 46 22 47 62 26z m1796 -20 c19 -47 18 -55 -11 -55 -14 0 -25 -4 -25 -10
0 -23 -22 -8 -36 25 -19 46 -18 49 14 62 41 16 42 16 58 -22z m-1096 1 c0 -3
-5 -17 -11 -33 -8 -21 -12 -24 -19 -13 -9 15 5 50 20 50 6 0 10 -2 10 -4z
m365 -16 c9 -27 -6 -50 -16 -24 -4 10 -8 25 -8 32 -1 20 17 14 24 -8z m-598
-42 c65 -28 122 -54 126 -58 5 -4 -14 -56 -40 -116 -46 -103 -51 -109 -80
-112 -29 -3 -33 1 -52 42 -15 34 -28 49 -57 61 -55 23 -67 11 -13 -13 37 -16
49 -28 58 -55 11 -32 9 -36 -24 -71 -19 -21 -35 -41 -35 -46 0 -5 -9 -29 -19
-54 l-20 -45 -88 40 c-48 23 -89 42 -91 43 -1 2 3 26 9 54 l12 51 44 -6 c40
-5 47 -3 73 25 21 23 33 29 51 25 16 -4 21 -2 14 4 -32 32 -149 32 -213 0 -19
-9 -33 -6 -87 21 -37 18 -65 38 -65 47 0 20 1 20 70 -15 33 -16 67 -30 75 -30
10 0 27 24 45 63 18 40 37 66 53 73 35 16 53 3 37 -25 -6 -12 -10 -27 -8 -33
2 -6 24 33 48 85 25 53 48 97 52 97 5 0 61 -23 125 -52z m979 -45 c25 -54 48
-93 51 -86 2 7 -1 22 -7 34 -16 29 0 42 32 27 18 -9 35 -32 52 -71 13 -31 31
-60 39 -63 8 -3 44 8 80 24 36 17 68 28 71 24 14 -14 2 -25 -59 -54 -56 -26
-70 -29 -93 -19 -56 22 -110 28 -161 18 -28 -5 -51 -14 -51 -19 0 -5 8 -8 18
-6 10 1 31 -10 47 -25 27 -25 35 -28 76 -22 47 5 47 5 52 -27 3 -18 8 -42 11
-53 6 -17 -5 -25 -80 -60 -48 -22 -90 -41 -93 -43 -4 -1 -17 25 -31 59 -13 34
-37 74 -52 89 -15 16 -28 34 -28 40 0 29 32 70 65 81 19 7 35 17 35 21 0 11
-4 10 -49 -8 -32 -13 -43 -24 -57 -60 -14 -37 -21 -44 -44 -44 -15 0 -32 6
-38 13 -23 29 -95 208 -86 216 10 10 235 110 246 111 5 0 29 -44 54 -97z
m-702 78 c7 -11 -20 -48 -29 -39 -9 8 4 48 15 48 5 0 11 -4 14 -9z m281 -12
c4 -11 4 -24 0 -27 -9 -9 -36 28 -29 39 9 15 22 10 29 -12z m-1037 -54 c7 -7
-23 -55 -32 -51 -77 31 -136 60 -136 68 0 5 4 18 10 28 9 17 13 17 82 -12 40
-17 74 -32 76 -33z m1930 10 c-2 -2 -35 -17 -73 -34 -64 -27 -71 -29 -82 -14
-23 29 -14 39 60 70 l72 30 13 -24 c8 -14 12 -26 10 -28z m-1258 -15 c0 -19
-11 -26 -23 -14 -8 8 3 34 14 34 5 0 9 -9 9 -20z m440 -6 c0 -16 -16 -19 -25
-4 -8 13 4 32 16 25 5 -4 9 -13 9 -21z m-394 -20 c-5 -14 -9 -15 -19 -5 -9 9
-9 14 3 21 18 11 24 6 16 -16z m349 -5 c-10 -15 -22 -10 -28 11 -4 17 -2 18
14 9 11 -5 17 -14 14 -20z m-1064 -12 c-10 -9 -11 -8 -5 6 3 10 9 15 12 12 3
-3 0 -11 -7 -18z m631 -16 c-22 -22 -27 -19 -12 8 6 12 15 19 20 16 5 -3 2
-14 -8 -24z m525 -47 c-2 -3 -10 9 -17 26 -7 16 -20 30 -29 30 -14 0 -14 2 -1
10 12 7 19 1 33 -26 10 -20 16 -38 14 -40z m-463 47 c7 -11 -88 -233 -96 -225
-3 3 14 48 38 100 28 60 43 103 39 115 -6 19 9 27 19 10z m384 -13 c0 -13 18
-63 41 -112 23 -49 40 -93 38 -99 -1 -5 -24 41 -51 101 -26 61 -45 115 -41
121 10 17 15 13 13 -11z m-227 -58 c23 -10 35 -8 104 24 43 20 80 35 81 33 9
-9 94 -212 94 -224 0 -11 -35 -89 -45 -101 -1 -2 -27 6 -56 18 -61 23 -69 24
-69 10 0 -5 7 -10 15 -10 28 0 15 -17 -29 -41 -44 -23 -50 -37 -31 -81 10 -24
-30 -44 -62 -29 -22 10 -22 13 -9 33 16 26 6 68 -16 68 -7 0 -24 9 -38 20 -21
17 -23 21 -10 29 30 20 0 21 -49 1 -28 -11 -54 -20 -57 -20 -3 0 -16 23 -29
51 -25 55 -25 53 14 142 12 26 30 67 41 92 l19 45 53 -24 c29 -13 65 -29 79
-36z m-272 -41 c-17 -41 -36 -78 -41 -84 -13 -12 -10 -3 33 93 42 94 49 87 8
-9z m619 -21 c17 -38 28 -68 26 -68 -6 0 -64 125 -64 136 0 13 8 -1 38 -68z
m-924 6 c33 -13 2 -24 -66 -24 -79 0 -84 6 -17 19 59 12 65 12 83 5z m1320
-14 c15 -6 1 -9 -46 -9 -63 -1 -87 7 -70 23 8 8 83 -1 116 -14z m-1349 -30
c-3 -5 -15 -10 -26 -10 -10 0 -19 5 -19 10 0 6 12 10 26 10 14 0 23 -4 19 -10z
m1305 0 c0 -5 -6 -10 -14 -10 -8 0 -18 5 -21 10 -3 6 3 10 14 10 12 0 21 -4
21 -10z m-1070 -50 c0 -5 -11 -10 -23 -10 -33 0 -51 -24 -90 -113 -35 -79 -47
-100 -47 -78 0 27 74 183 94 196 23 17 66 20 66 5z m854 -1 c14 -7 34 -32 46
-57 36 -75 61 -144 55 -150 -7 -7 -7 -7 -44 80 -42 98 -57 118 -87 118 -13 0
-24 5 -24 10 0 13 23 13 54 -1z m-779 -60 c39 -19 65 -37 68 -50 6 -23 -64
-191 -82 -197 -13 -4 -51 10 -148 55 l-52 25 14 36 c29 81 65 151 82 161 21
12 34 9 118 -30z m757 32 c17 -6 35 -34 62 -95 21 -47 36 -92 33 -99 -8 -22
-176 -93 -193 -81 -24 15 -86 166 -79 192 5 20 41 42 152 91 1 1 12 -3 25 -8z
m-674 -56 c7 -14 12 -34 12 -43 0 -14 -85 -219 -95 -230 -6 -7 -84 31 -89 44
-3 8 -3 14 0 14 10 0 69 -33 75 -42 7 -10 99 198 99 222 0 9 -7 26 -16 38 -8
12 -11 22 -6 22 5 0 14 -11 20 -25z m488 -10 c-16 -31 -18 -25 43 -164 23 -52
39 -96 37 -98 -3 -3 -85 177 -100 220 -6 17 21 84 30 74 2 -2 -2 -17 -10 -32z
m-297 -95 c6 0 -5 -31 -24 -69 -19 -38 -35 -73 -35 -78 0 -4 -4 -14 -9 -22 -8
-12 -22 -8 -85 20 -42 19 -76 37 -76 41 0 4 15 42 34 85 31 71 38 78 73 89 37
11 39 10 75 -27 21 -22 42 -39 47 -39z m280 4 c13 -27 30 -64 37 -81 l14 -33
-80 -40 c-50 -25 -80 -36 -80 -28 0 7 -18 49 -40 93 -38 76 -39 94 -7 95 4 0
7 5 7 12 0 7 12 22 27 34 24 19 31 20 63 9 27 -9 40 -23 59 -61z m-844 16 c8
-13 -5 -13 -25 0 -13 8 -13 10 2 10 9 0 20 -4 23 -10z m1255 0 c-20 -13 -33
-13 -25 0 3 6 14 10 23 10 15 0 15 -2 2 -10z m-1200 -59 c0 -6 -4 -13 -10 -16
-5 -3 -10 1 -10 9 0 9 5 16 10 16 6 0 10 -4 10 -9z m1138 -9 c6 -18 -15 -14
-22 4 -4 10 -1 14 6 12 6 -2 14 -10 16 -16z m-1058 -33 c11 -6 9 -8 -10 -8
-14 0 -36 6 -50 15 -25 15 -25 15 10 8 19 -3 42 -10 50 -15z m469 -5 c6 -5
-54 -123 -64 -123 -5 -1 -16 3 -24 8 -12 8 -11 16 4 53 9 23 21 53 26 66 8 20
12 21 31 11 13 -6 25 -13 27 -15z m115 -92 c5 -15 1 -22 -14 -27 -12 -4 -23
-5 -24 -3 -2 1 -17 29 -34 61 l-30 57 26 14 c27 14 27 14 49 -34 11 -27 24
-57 27 -68z m432 103 c-18 -14 -66 -21 -66 -10 0 5 57 23 75 24 6 0 1 -6 -9
-14z m-976 -35 c8 -5 12 -11 9 -14 -3 -3 -14 1 -25 9 -21 16 -8 20 16 5z m900
0 c-20 -13 -33 -13 -25 0 3 6 14 10 23 10 15 0 15 -2 2 -10z m-50 -14 c0 -7
-8 -16 -17 -19 -10 -2 -26 -8 -35 -12 -32 -13 -19 11 15 28 17 8 33 16 35 16
1 1 2 -5 2 -13z m-645 -26 c8 -13 -5 -13 -25 0 -13 8 -13 10 2 10 9 0 20 -4
23 -10z m495 6 c0 -2 -7 -7 -16 -10 -8 -3 -12 -2 -9 4 6 10 25 14 25 6z m-510
-26 c8 -5 12 -11 10 -14 -3 -2 -14 2 -24 10 -22 15 -10 19 14 4z m75 -7 c19
-9 35 -20 35 -25 0 -5 -18 1 -40 12 -22 11 -40 23 -40 25 0 8 7 6 45 -12z
m394 14 c-21 -17 -79 -45 -79 -38 0 8 58 39 74 40 5 1 7 0 5 -2z m46 -7 c-3
-5 -11 -10 -16 -10 -6 0 -7 5 -4 10 3 6 11 10 16 10 6 0 7 -4 4 -10z"/>
<path d="M290 1405 c0 -5 10 -25 21 -44 19 -32 20 -36 4 -47 -15 -11 -15 -13
0 -21 15 -9 15 -13 -4 -44 -23 -38 -26 -49 -11 -49 6 0 10 6 10 13 1 35 16 38
71 13 40 -17 60 -21 72 -14 10 5 26 6 37 3 11 -4 20 -2 20 4 0 15 -37 23 -59
12 -15 -8 -30 -6 -62 8 -41 19 -43 21 -44 65 0 44 0 45 42 61 26 10 54 14 73
10 16 -3 37 -2 46 3 12 7 3 10 -35 15 -39 5 -61 1 -98 -15 -27 -12 -49 -16
-50 -11 -6 18 -32 48 -33 38z"/>
<path d="M437 1319 c-7 -25 2 -51 14 -43 12 7 12 51 0 58 -5 3 -11 -4 -14 -15z"/>
<path d="M2142 1323 c-12 -21 -7 -53 8 -53 12 0 18 33 10 55 -7 19 -7 19 -18
-2z"/>
</g>
</svg>
